<?xml version="1.0" standalone="no"?>
<!DOCTYPE svg PUBLIC "-//W3C//DTD SVG 1.1//EN" "http://www.w3.org/Graphics/SVG/1.1/DTD/svg11.dtd" >

<svg>
<metadata>
Created by webfont
</metadata>
<defs>

<font id="AlibabaPuHuiTiL" horiz-adv-x="1234" vert-adv-y="1234" >
  <font-face
    
    font-family="AlibabaPuHuiTiL"
    
    font-weight="400"
    
    font-stretch="normal"
    
    units-per-em="1000"
    
    ascent="1097"
    
    descent="-279"
    
  />
    <missing-glyph />
    
    <glyph glyph-name="uni3002" unicode="&#x3002;" d="M268-97Q217-97 183.50-68Q150-39 150 15Q150 69 183.50 98Q217 127 268 127Q319 127 352.50 98Q386 69 386 15Q386-39 352-68Q318-97 268-97M208-45Q208-45 219.50-55.50Q231-66 268-66Q305-66 328-45Q351-24 351 15Q351 54 328 75Q305 96 268 96Q231 96 208 75Q185 54 185 15Q185-24 208-45Z"  horiz-adv-x="984" vert-adv-y="1000"  />

    
    <glyph glyph-name="uni4E00" unicode="&#x4E00;" d="M932 368L51 368L51 406L932 406L932 368Z"  horiz-adv-x="984" vert-adv-y="1000"  />

    
    <glyph glyph-name="uni4E0D" unicode="&#x4E0D;" d="M894 686L579 686Q505 536 374.50 388.50Q244 241 82 118L60 148Q215 265 341 405Q467 545 538 686L91 686L91 722L894 722L894 686M475-90L475 510L509 508L509-90L475-90M561 442L582 468Q652 414 756 318.50Q860 223 919 160L894 131Q838 193 735.50 289Q633 385 561 442Z"  horiz-adv-x="984" vert-adv-y="1000"  />

    
    <glyph glyph-name="uni4E3A" unicode="&#x4E3A;" d="M477 558L839 558Q839 540 827.50 337.50Q816 135 810 64Q804-4 770.50-27Q737-50 647-54L533-59L522-23L640-19Q717-17 743 1.50Q769 20 775 77Q780 130 790.50 322Q801 514 802 523L473 523Q451 322 365.50 181.50Q280 41 100-89L76-61Q252 69 333.50 199.50Q415 330 439 523L98 523L98 558L443 558Q443 560 443.50 564.50Q444 569 444 571Q445 590 448.50 646.50Q452 703 454.50 746Q457 789 457 796L492 794Q492 718 478 570Q478 568 477.50 564Q477 560 477 558M345 619L319 595Q301 622 252.50 679.50Q204 737 178 761L203 783Q227 761 276 704Q325 647 345 619M680 223L654 199Q636 228 583 290.50Q530 353 501 380L526 404Q555 375 608 313.50Q661 252 680 223Z"  horiz-adv-x="984" vert-adv-y="1000"  />

    
    <glyph glyph-name="uni4E86" unicode="&#x4E86;" d="M289-35L382-29Q443-25 459.50-11.50Q476 2 476 51L476 453L795 676L97 676L97 712L855 712L855 676L511 434L511 42Q511-20 488.50-38.50Q466-57 390-63L299-70L289-35Z"  horiz-adv-x="984" vert-adv-y="1000"  />

    
    <glyph glyph-name="uni4E8B" unicode="&#x4E8B;" d="M929 235L929 205L811 205L811 78L497 78L497 30Q497-25 473.50-46.50Q450-68 388-72L311-77L302-45L382-41Q431-39 448-23.50Q465-8 465 35L465 78L100 78L100 107L465 107L465 205L29 205L29 235L465 235L465 329L110 329L110 358L465 358L465 445L168 445L168 599L465 599L465 687L60 687L60 716L465 716L465 810L497 808L497 716L898 716L898 687L497 687L497 599L790 599L790 445L497 445L497 358L811 358L811 235L929 235M201 473L465 473L465 572L201 572L201 473M758 572L497 572L497 473L758 473L758 572M497 329L497 235L779 235L779 329L497 329M779 107L779 205L497 205L497 107L779 107Z"  horiz-adv-x="984" vert-adv-y="1000"  />

    
    <glyph glyph-name="uni4ECE" unicode="&#x4ECE;" d="M656 651Q664 403 732.50 239Q801 75 950-70L925-96Q800 27 732 158.50Q664 290 641 470Q617 298 546 164.50Q475 31 338-98L312-71Q485 92 552 258.50Q619 425 623 690Q624 718 624 795L658 793L657 690Q657 684 656.50 671Q656 658 656 651M482 218L454 196Q357 356 293 448Q273 295 222.50 180.50Q172 66 69-75L38-53Q170 125 217.50 268Q265 411 271 660Q271 678 272.50 727Q274 776 274 793L309 791Q309 773 308 725Q307 677 307 659Q306 581 299 501L482 218Z"  horiz-adv-x="984" vert-adv-y="1000"  />

    
    <glyph glyph-name="uni4EEC" unicode="&#x4EEC;" d="M397 781L421 802Q446 775 483 726Q520 677 537 649L512 627Q449 725 397 781M262 801L293 792Q263 690 216 587L216-86L182-86L182 516Q128 405 57 302L36 331Q99 420 163.50 551Q228 682 262 801M571 722L864 722L864 47Q864-23 839.50-44Q815-65 741-71L666-78L655-44L735-38Q796-34 813-18Q830-2 830 53L830 689L571 689L571 722M366-77L366 634L400 634L400-77L366-77Z"  horiz-adv-x="984" vert-adv-y="1000"  />

    
    <glyph glyph-name="uni4F1A" unicode="&#x4F1A;" d="M478 795L509 795Q576 694 689 598.50Q802 503 939 430L923 397Q791 469 675.50 565Q560 661 494 758Q425 656 311.50 560.50Q198 465 63 391L47 423Q185 495 297 591.50Q409 688 478 795M244 466L742 466L742 434L244 434L244 466M104 237L104 270L882 270L882 237L461 237Q421 175 358.50 105Q296 35 242-9Q283-7 478-1.50Q673 4 715 6Q649 88 590 150L615 172Q744 32 820-70L793-95Q778-74 739-24Q709-26 479.50-34Q250-42 223-44Q193-46 163-50L156-17Q189-9 203 0Q252 39 313.50 107.50Q375 176 418 237L104 237Z"  horiz-adv-x="984" vert-adv-y="1000"  />

    
    <glyph glyph-name="uni4F60" unicode="&#x4F60;" d="M856 612L455 612Q401 503 331 403L304 422Q426 591 497 797L529 789Q503 713 471 646L894 646L894 612L804 444L774 458L856 612M260 787L294 778Q254 659 218 580L218-88L183-88L183 508Q126 397 58 302L36 328Q102 422 162.50 543Q223 664 260 787M600 24L600 518L634 516L634 15Q634-31 612-49Q590-67 532-71L461-76L452-42L525-38Q570-35 585-23Q600-11 600 24M447 361L478 350Q450 263 401.50 165.50Q353 68 304 1L274 15Q322 82 370 178.50Q418 275 447 361M731 343L760 359Q853 204 940 19L910 4Q796 240 731 343Z"  horiz-adv-x="984" vert-adv-y="1000"  />

    
    <glyph glyph-name="uni5206" unicode="&#x5206;" d="M549 790L581 802Q631 660 718.50 562.50Q806 465 946 384L929 352Q784 436 694 537.50Q604 639 549 790M384 779L416 765Q313 546 58 359L39 388Q287 567 384 779M159 348L159 382L732 382Q732 362 722.50 234.50Q713 107 707 63Q699-5 667.50-28.50Q636-52 553-58L467-65L455-30L546-24Q620-18 644-0.50Q668 17 674 75Q683 171 696 348L367 348L362 272Q352 141 296.50 60.50Q241-20 85-102L61-73Q211 3 264.50 77Q318 151 328 273Q330 289 333 348L159 348Z"  horiz-adv-x="984" vert-adv-y="1000"  />

    
    <glyph glyph-name="uni53CB" unicode="&#x53CB;" d="M940-58L926-93Q684-6 565 90Q437-10 196-101L179-67Q412 18 536 113Q405 228 342 420L331 420Q254 156 63-76L36-50Q162 102 233.50 262Q305 422 338 619L75 619L75 654L343 654Q353 719 359 796L397 794Q390 714 381 654L934 654L934 619L376 619Q360 531 340 453L798 453L798 420Q729 230 592 113Q713 20 940-58M762 420L375 420Q440 242 564 135Q700 250 762 420Z"  horiz-adv-x="984" vert-adv-y="1000"  />

    
    <glyph glyph-name="uni53D8" unicode="&#x53D8;" d="M367 351L367 634L83 634L83 667L488 667Q463 757 450 792L484 796Q499 756 524 667L900 667L900 634L617 634L617 351L584 351L584 634L401 634L401 351L367 351M277 559L300 537Q196 417 75 326L56 355Q193 456 277 559M688 530L708 555Q807 481 926 375L907 348Q785 458 688 530M938-67L929-101Q620-34 489 35Q342-39 51-106L42-73Q296-20 453 55Q339 124 264 245L293 263Q371 138 488 72Q632 149 716 268L167 268L167 300L760 300L760 269Q671 133 524 53Q655-10 938-67Z"  horiz-adv-x="984" vert-adv-y="1000"  />

    
    <glyph glyph-name="uni548C" unicode="&#x548C;" d="M282 699L282 515L474 515L474 481L282 481L282-96L248-96L248 406Q175 238 58 97L38 127Q184 303 247 481L63 481L63 515L248 515L248 690Q178 673 81 656L77 689Q299 730 438 778L445 745Q387 725 282 699M524 685L865 685L865-58L831-58L831 22L558 22L558-66L524-66L524 685M558 59L831 59L831 649L558 649L558 59M292 360L315 383Q420 278 467 227L443 201Q411 241 292 360Z"  horiz-adv-x="984" vert-adv-y="1000"  />

    
    <glyph glyph-name="uni56E0" unicode="&#x56E0;" d="M128 740L855 740L855-95L821-95L821-27L162-27L162-95L128-95L128 740M162 5L821 5L821 704L162 704L162 5M502 452L499 417Q498 409 496 395Q494 381 492 373Q515 351 743 111L720 84Q580 237 482 335Q458 261 399.50 199.50Q341 138 240 77L221 108Q342 178 399.50 252Q457 326 467 426L469 452L228 452L228 487L471 487Q474 557 474 651L508 649Q508 597 503 487L753 487L753 452L502 452Z"  horiz-adv-x="984" vert-adv-y="1000"  />

    
    <glyph glyph-name="uni5728" unicode="&#x5728;" d="M899 631L370 631Q315 512 236 395L236-92L202-92L202 348Q141 263 43 167L21 196Q209 373 332 631L55 631L55 664L348 664Q381 738 403 808L436 799Q414 730 385 664L899 664L899 631M605 17L910 17L910-14L277-14L277 17L570 17L570 320L329 320L329 355L570 355L570 541L605 539L605 355L860 355L860 320L605 320L605 17Z"  horiz-adv-x="984" vert-adv-y="1000"  />

    
    <glyph glyph-name="uni59CB" unicode="&#x59CB;" d="M368 596L368 561Q352 400 329.50 301Q307 202 268 128Q337 71 398 13L377-13Q285 69 251 98Q193 5 69-104L47-79Q174 34 226 120Q189 152 96 226Q133 373 159 561L54 561L54 596L163 596Q174 683 183 797L217 795Q215 779 208 707Q201 635 196 596L368 596M724 662L752 679Q782 636 832.50 549Q883 462 915 400L886 383L852 448Q829 446 647 438.50Q465 431 448 429Q422 427 406 423L399 456Q423 463 430 473Q473 526 530.50 623Q588 720 622 797L653 785Q621 711 565.50 616.50Q510 522 465 465Q534 465 834 481Q770 594 724 662M132 241Q141 234 161.50 217Q182 200 203 183Q224 166 243 150Q280 219 300 312.50Q320 406 335 561L191 561Q165 369 132 241M456-96L456 285L855 285L855-96L822-96L822-33L490-33L490-96L456-96M822 252L490 252L490 0L822 0L822 252Z"  horiz-adv-x="984" vert-adv-y="1000"  />

    
    <glyph glyph-name="uni5B8C" unicode="&#x5B8C;" d="M146 638L146 498L113 498L113 671L483 671Q461 759 446 799L480 803Q492 770 518 671L867 671L867 499L834 499L834 638L146 638M770 450L210 450L210 483L770 483L770 450M874 136L906 124Q906 100 899 32Q891-28 869-47Q847-66 779-68Q732-70 685-68Q624-66 601-43.50Q578-21 578 39L578 254L371 254Q371 246 370.50 231Q370 216 370 213Q364 93 295.50 21.50Q227-50 68-104L54-72Q206-20 265 41Q324 102 334 215Q335 219 335.50 233.50Q336 248 336 254L85 254L85 287L898 287L898 254L613 254L613 44Q613-2 628.50-17.50Q644-33 692-35Q734-36 777-35Q830-33 845.50-19.50Q861-6 867 42Q874 107 874 136Z"  horiz-adv-x="984" vert-adv-y="1000"  />

    
    <glyph glyph-name="uni5B9E" unicode="&#x5B9E;" d="M147 632L147 489L112 489L112 664L486 664Q466 746 448 797L482 801Q490 782 522 664L872 664L872 487L837 487L837 632L147 632M910 169L553 169Q543 148 528 126Q577 101 719.50 35Q862-31 904-52L887-84Q783-31 507 99Q451 35 350.50-10.50Q250-56 86-95L75-62Q264-19 367.50 36.50Q471 92 514 169L67 169L67 202L529 202Q553 262 558 365Q564 465 564 577L599 575Q599 446 594 361Q591 271 567 202L910 202L910 169M478 431L463 402Q452 409 401.50 442.50Q351 476 313.50 500.50Q276 525 253 538L268 566Q314 539 478 431M172 384L187 412Q221 393 313.50 337.50Q406 282 417 275L401 247Q262 335 172 384Z"  horiz-adv-x="984" vert-adv-y="1000"  />

    
    <glyph glyph-name="uni5C31" unicode="&#x5C31;" d="M921 521L631 521Q625 285 583 162Q541 39 425-89L398-67Q513 60 553 175.50Q593 291 599 521L487 521L487 553L600 553L600 576Q600 627 602 721Q603 748 603 803L636 801L634 720Q632 626 632 576L632 553L921 553L921 521M520 671L520 639L74 639L74 671L290 671Q269 742 249 798L284 802Q312 722 326 671L520 671M874 632L851 610Q825 640 715 750L736 772Q861 647 874 632M446 292L316 292L316 30Q316-21 296.50-39Q277-57 222-61L162-66L153-34L213-30Q258-26 270.50-14.50Q283-3 283 37L283 292L136 292L136 518L446 518L446 292M906 161L935 150Q935 105 921 21Q912-25 897.50-42Q883-59 848-60Q818-62 788-60Q748-58 731.50-39.50Q715-21 715 23L715 504L747 502L747 28Q747-5 757.50-15.50Q768-26 795-28Q820-30 846-28Q870-26 878.50-16Q887-6 893 27Q896 44 901 97Q906 150 906 161M168 489L168 322L413 322L413 489L168 489M169 229L198 216Q143 71 76-25L49-8Q126 112 169 229M493 79L468 62Q426 146 378 210L402 228Q454 152 493 79Z"  horiz-adv-x="984" vert-adv-y="1000"  />

    
    <glyph glyph-name="uni5DF2" unicode="&#x5DF2;" d="M864 195L900 183Q899 152 888 66Q878-11 850-34Q822-57 730-59Q522-66 313-59Q222-57 190-27.50Q158 2 158 91L158 569L195 567L195 409L766 409L766 692L125 692L125 727L802 727L802 373L195 373L195 98Q195 24 219.50 1.50Q244-21 321-23Q522-30 724-23Q802-21 823.50-4Q845 13 853 76Q858 112 864 195Z"  horiz-adv-x="984" vert-adv-y="1000"  />

    
    <glyph glyph-name="uni5F00" unicode="&#x5F00;" d="M938 367L938 331L689 331L689-95L653-95L653 331L338 331Q332 179 287 91Q242 3 113-105L88-79Q213 24 255 105.50Q297 187 303 331L44 331L44 367L304 367L304 411L304 688L93 688L93 723L888 723L888 688L689 688L689 367L938 367M339 367L653 367L653 688L339 688L339 414L339 367Z"  horiz-adv-x="984" vert-adv-y="1000"  />

    
    <glyph glyph-name="uni5F97" unicode="&#x5F97;" d="M291 796L319 777Q280 710 217 635.50Q154 561 89 505L70 534Q133 587 194 659.50Q255 732 291 796M831 744L831 438L407 438L407 744L831 744M798 715L441 715L441 606L798 606L798 715M441 467L798 467L798 576L441 576L441 467M291 563L319 546Q282 469 230 395L230-89L198-89L198 351Q123 251 53 184L37 216Q104 280 178.50 380.50Q253 481 291 563M942 198L942 167L790 167L790 22Q790-33 768.50-50.50Q747-68 681-72L597-77L586-44L674-40Q727-38 741.50-24.50Q756-11 756 31L756 167L306 167L306 198L756 198L756 309L351 309L351 341L910 341L910 309L790 309L790 198L942 198M406 136L428 161Q464 133 577 36L554 10Q482 80 406 136Z"  horiz-adv-x="984" vert-adv-y="1000"  />

    
    <glyph glyph-name="uni6210" unicode="&#x6210;" d="M893 158L923 144Q920 119 904 39Q891-27 871-51Q851-75 820-75Q761-75 706 2Q670 54 642 123Q565 34 443-53L422-25Q554 71 628 158Q568 330 545 592L188 592L188 415L435 415Q435 405 429 288.50Q423 172 420 137Q414 73 389.50 53.50Q365 34 287 28L218 22L208 57L281 61Q346 65 364.50 79.50Q383 94 387 144Q398 302 398 381L188 381L188 371Q188 216 158.50 116.50Q129 17 56-93L25-76Q96 30 124.50 125Q153 220 153 372L153 628L542 628L528 804L561 803Q561 791 575 628L902 628L902 592L578 592Q601 346 653 189Q744 309 804 501L834 489Q768 281 666 152Q697 71 736 17Q777-38 821-38Q840-38 852-20Q864-2 875 52Q886 98 893 158M817 682L795 658Q718 729 656 773L677 796Q745 745 817 682Z"  horiz-adv-x="984" vert-adv-y="1000"  />

    
    <glyph glyph-name="uni6211" unicode="&#x6211;" d="M913 465L601 465Q616 290 644 185Q756 280 833 409L861 392Q777 252 654 149Q681 62 719 8Q759-45 807-45Q825-45 836.50-29Q848-13 863 43Q877 101 883 150L912 132Q911 128 903.50 87Q896 46 891 26Q876-34 857-58Q838-82 807-82Q742-82 691-8Q654 41 627 126Q517 40 377-24L362 8Q519 83 616 162Q583 285 566 465L307 465L307 278Q464 317 491 324L495 306L497 290Q383 261 307 243L307 30Q307-21 282.50-40.50Q258-60 197-64L121-69L111-35L192-31Q242-29 258-15Q274-1 274 37L274 235Q119 198 65 183L59 217Q123 234 274 270L274 465L64 465L64 499L274 499L274 673Q183 656 91 646L87 678Q292 700 458 752L465 719Q392 697 307 680L307 499L563 499Q561 517 559 552Q557 587 556 605Q547 697 547 798L580 796Q580 774 590 607L598 499L913 499L913 465M855 595L831 572Q740 671 662 733L684 757Q746 704 855 595Z"  horiz-adv-x="984" vert-adv-y="1000"  />

    
    <glyph glyph-name="uni6539" unicode="&#x6539;" d="M671 155Q764 43 946-67L926-98Q752 8 650 128Q553 17 352-102L331-71Q524 38 628 156Q527 287 493 477Q463 419 430 370L405 394Q459 475 509 592Q559 709 579 804L614 797Q596 722 559 623L930 623L930 587L822 587Q806 443 771 340Q736 237 671 155M415 138L423 103L360 74Q297 44 233 13.50Q169-17 156-25Q131-39 108-58L89-25Q120-1 120 9L120 395L340 395L340 666L96 666L96 702L374 702L374 360L154 360L154 12Q166 17 227.50 47Q289 77 350 106.50Q411 136 415 138M517 527Q548 317 649 183Q710 263 741 358Q772 453 787 587L544 587Q527 544 517 527Z"  horiz-adv-x="984" vert-adv-y="1000"  />

    
    <glyph glyph-name="uni662F" unicode="&#x662F;" d="M752 747L752 413L195 413L195 747L752 747M718 717L231 717L231 595L718 595L718 717M231 444L718 444L718 565L231 565L231 444M502-30L537-32Q731-40 925-32L920-65Q729-73 538-65Q417-61 343.50-31Q270-1 216 82Q167-19 57-107L34-81Q121-12 164.50 57Q208 126 230 231L263 224Q252 173 232 117Q273 46 329.50 14Q386-18 468-27L468 273L56 273L56 305L891 305L891 273L502 273L502 142L818 142L818 112L502 112L502-30Z"  horiz-adv-x="984" vert-adv-y="1000"  />

    
    <glyph glyph-name="uni670B" unicode="&#x670B;" d="M162 395L162 733L430 733L430 35Q430-15 409-34Q388-53 332-59L264-67L254-33L325-26Q369-22 383.50-8.50Q398 5 398 45L398 217L187 217Q178 116 151 49.50Q124-17 67-93L39-73Q89-4 113 49.50Q137 103 149.50 183.50Q162 264 162 395M567 733L861 733L861 29Q861-24 841-43.50Q821-63 761-69L687-77L677-42L753-35Q801-31 815.50-17.50Q830-4 830 39L830 217L593 217Q585 109 559.50 41Q534-27 475-102L447-82Q522 13 544.50 100.50Q567 188 567 389L567 733M398 698L193 698L193 490L398 490L398 698M830 698L598 698L598 488L830 488L830 698M189 250L398 250L398 456L193 456L193 385Q193 302 189 250M595 250L830 250L830 453L598 453L598 380Q598 307 595 250Z"  horiz-adv-x="984" vert-adv-y="1000"  />

    
    <glyph glyph-name="uni73B0" unicode="&#x73B0;" d="M454 706L454 199L420 199L420 741L834 741L834 198L800 198L800 706L454 706M383 149L386 132Q150 54 43 26L36 59Q150 91 194 105L194 391L62 391L62 425L194 425L194 675L56 675L56 708L367 708L367 675L229 675L229 425L367 425L367 391L229 391L229 116Q330 146 379 165L383 149M608 633L640 631Q640 465 636 405Q630 219 558 107Q486-5 309-105L289-75Q463 21 529 123.50Q595 226 603 408Q608 485 608 633M890 164L919 156Q917 140 913.50 89.50Q910 39 909 29Q903-26 881.50-44Q860-62 798-64Q764-66 729-64Q673-62 653-42Q633-22 633 32L633 258L665 256L665 41Q665-2 678.50-14.50Q692-27 738-29Q766-30 794-29Q843-27 858-15Q873-3 879 38Q890 117 890 164Z"  horiz-adv-x="984" vert-adv-y="1000"  />

    
    <glyph glyph-name="uni7684" unicode="&#x7684;" d="M573 628L878 628Q878 611 869.50 348.50Q861 86 858 51Q854-13 828-34Q802-55 725-61L644-67L631-32L717-26Q781-22 800.50-6Q820 10 824 64Q826 90 833.50 328Q841 566 843 593L559 593Q519 499 470 426L441 446Q538 585 596 808L629 800Q608 716 573 628M259 801L294 794Q281 718 248 628L419 628L419-55L109-55L109 628L212 628Q232 680 259 801M386 322L386 593L142 593L142 322L386 322M705 235L676 213Q601 331 516 432L542 452Q620 360 705 235M142-22L386-22L386 287L142 287L142-22Z"  horiz-adv-x="984" vert-adv-y="1000"  />

    
    <glyph glyph-name="uni7ECF" unicode="&#x7ECF;" d="M93 448Q89 448 84.50 447Q80 446 73.50 444.50Q67 443 60 442L52 474Q73 482 78 489Q194 657 247 787L277 773Q251 707 200.50 620Q150 533 111 481Q125 483 197.50 486Q270 489 286 490Q321 546 356 612L384 597Q346 519 270 403.50Q194 288 151 236Q183 240 270 251.50Q357 263 364 265L366 231L132 198Q101 192 90 188L81 222Q101 228 107.50 232Q114 236 123 249Q189 331 266 457Q122 448 93 448M671 524Q818 445 945 363L927 332Q875 368 787 421.50Q699 475 646 502Q522 397 365 324L348 355Q477 414 590 501.50Q703 589 772 687L411 687L411 721L816 721L816 689Q757 601 671 524M656 235L656-4L923-4L923-37L345-37L345-4L624-4L624 235L420 235L420 268L860 268L860 235L656 235M371 62L373 44Q195 5 45-17L42 14Q151 31 370 76L371 62Z"  horiz-adv-x="984" vert-adv-y="1000"  />

    
    <glyph glyph-name="uni8BB0" unicode="&#x8BB0;" d="M112 754L139 776Q167 744 217 676.50Q267 609 290 570L261 549Q239 586 189 654Q139 722 112 754M831 377L453 377L453 70Q453 11 470.50-5Q488-21 552-25Q676-34 764-25Q820-21 835.50-7.50Q851 6 861 59Q870 109 872 167L905 155Q903 102 894 49Q884-17 863.50-35Q843-53 773-59Q677-68 542-59Q466-55 442-32.50Q418-10 418 63L418 413L796 413L796 687L385 687L385 722L831 722L831 377M228 466L228 18Q239 27 274 55.50Q309 84 337 106.50Q365 129 368 132L381 98Q377 95 305.50 38.50Q234-18 225-24Q214-32 194-55L171-29Q193-7 193 7L193 431L43 431L43 466L228 466Z"  horiz-adv-x="984" vert-adv-y="1000"  />

    
    <glyph glyph-name="uni8D77" unicode="&#x8D77;" d="M480-21Q740-26 939-17L930-50Q718-60 477-55Q325-53 253-10.50Q181 32 152 147Q136 43 61-95L32-83Q91 27 112 109Q133 191 133 335L165 333Q165 275 162 227Q175 138 202.50 87Q230 36 281 12L281 414L58 414L58 447L268 447L268 622L95 622L95 655L268 655L268 798L300 796L300 655L471 655L471 622L300 622L300 447L497 447L497 414L314 414L314 229L484 229L484 196L314 196L314-1Q367-19 480-21M799 480L799 692L511 692L511 725L832 725L832 447L564 447L564 213Q564 161 579 145Q594 129 644 127Q695 124 746 127Q805 131 818.50 142.50Q832 154 840 205Q845 240 845 291L877 282Q877 248 870 197Q860 132 841 115Q822 98 752 94Q694 91 637 94Q575 96 553 119Q531 142 531 208L531 480L799 480Z"  horiz-adv-x="984" vert-adv-y="1000"  />

    
    <glyph glyph-name="uni8FD9" unicode="&#x8FD9;" d="M317 53L298 84Q482 187 582 300Q452 430 362 511L383 535Q435 489 603 325Q696 440 745 612L322 612L322 646L585 646Q565 719 536 794L570 799Q601 715 621 646L907 646L907 612L781 612Q731 428 628 301L856 74L833 46Q811 68 732.50 148Q654 228 606 276Q502 156 317 53M263 576L235 557Q158 685 107 748L134 769Q208 672 263 576M511-21Q726-26 940-15L930-49Q718-60 507-55Q389-53 325.50-26Q262 1 210 77Q103-30 65-70L46-39L194 109L194 404L58 404L58 438L228 438L228 109Q281 32 337.50 6.50Q394-19 511-21Z"  horiz-adv-x="984" vert-adv-y="1000"  />

    
    <glyph glyph-name="uni90A3" unicode="&#x90A3;" d="M73 706L73 742L468 742Q468 740 465 421.50Q462 103 462 74Q462 16 437.50-5Q413-26 349-30L259-36L249-3L341 3Q396 7 413 21.50Q430 36 430 85L432 269L229 269Q216 162 180.50 90.50Q145 19 68-80L39-62Q115 34 149 101Q183 168 196 269L66 269L66 302L199 302Q204 358 206 445L206 484L74 484L74 518L207 518L209 706L73 706M894 705L798 434Q859 368 885.50 314.50Q912 261 912 203Q912 131 876 103.50Q840 76 748 67L697 61L687 96L742 100Q819 106 848 127.50Q877 149 877 207Q877 310 762 426L861 706L636 706L636-90L601-90L601 741L894 741L894 705M240 518L434 518Q435 610 435 706L242 706L240 518M232 302L432 302L434 484L239 484L239 449Q237 360 232 302Z"  horiz-adv-x="984" vert-adv-y="1000"  />

    
    <glyph glyph-name="uni949F" unicode="&#x949F;" d="M866 608L866 222L653 222L653-94L619-94L619 222L405 222L405 608L619 608L619 804L653 802L653 608L866 608M183 796L214 789Q195 716 165 645L379 645L379 613L151 613Q115 530 61 435L35 456Q140 643 183 796M438 255L619 255L619 575L438 575L438 255M834 255L834 575L653 575L653 255L834 255M215 249L215-9Q278 31 364 89L375 59Q367 56 298.50 11.50Q230-33 210-47Q204-51 191-61.50Q178-72 176-73L159-44Q166-39 174-27.50Q182-16 182-8L182 249L55 249L55 282L182 282L182 438L102 438L102 471L347 471L347 438L215 438L215 282L369 282L369 249L215 249Z"  horiz-adv-x="984" vert-adv-y="1000"  />

    
    <glyph glyph-name="uniFF0C" unicode="&#xFF0C;" d="M197-136L158-136Q253 1 253 105L298 105Q298-6 197-136Z"  horiz-adv-x="984" vert-adv-y="1000"  />

    

  </font>
</defs>
</svg>
