<?xml version="1.0" standalone="no"?>
<!DOCTYPE svg PUBLIC "-//W3C//DTD SVG 1.1//EN" "http://www.w3.org/Graphics/SVG/1.1/DTD/svg11.dtd" >

<svg>
<metadata>
Created by webfont
</metadata>
<defs>

<font id="AlibabaPuHuiTiL" horiz-adv-x="1234" vert-adv-y="1234" >
  <font-face
    
    font-family="AlibabaPuHuiTiL"
    
    font-weight="400"
    
    font-stretch="normal"
    
    units-per-em="1000"
    
    ascent="1097"
    
    descent="-279"
    
  />
    <missing-glyph />
    
    <glyph glyph-name="uni30" unicode="&#x30;" d="M273-10Q217-10 177.50 6Q138 22 107 61Q76 100 61 171Q46 242 46 347Q46 452 61 523Q76 594 106.50 633Q137 672 177 688Q217 704 273 704Q349 704 396.50 675Q444 646 471.50 566Q499 486 499 347Q499 242 484.50 171Q470 100 439.50 61Q409 22 369.50 6Q330-10 273-10M273 32Q368 32 409 99.50Q450 167 450 347Q450 527 409 594.50Q368 662 273 662Q177 662 136 594.50Q95 527 95 347Q95 166 136 99Q177 32 273 32Z"  horiz-adv-x="545" vert-adv-y="1000"  />

    
    <glyph glyph-name="uni31" unicode="&#x31;" d="M269 0L269 647L94 613L94 654L292 694L316 694L316 0L269 0Z"  horiz-adv-x="545" vert-adv-y="1000"  />

    
    <glyph glyph-name="uni32" unicode="&#x32;" d="M51 0L51 52Q197 169 274.50 250.50Q352 332 378.50 389Q405 446 405 511Q405 662 244 662Q181 662 103 642L103 689Q175 704 244 704Q345 704 399 660.50Q453 617 453 512Q453 408 389.50 319Q326 230 156 86L114 50L114 44L490 44L490 0L51 0Z"  horiz-adv-x="545" vert-adv-y="1000"  />

    
    <glyph glyph-name="uni33" unicode="&#x33;" d="M216-10Q139-10 61 5L61 50Q140 32 222 32Q316 32 370 68Q424 104 424 181Q424 267 372 302.50Q320 338 206 338L150 338L150 380L205 380Q303 380 354.50 421Q406 462 406 526Q406 596 364.50 629Q323 662 235 662Q164 662 100 642L100 686Q162 704 238 704Q348 704 400.50 660.50Q453 617 453 528Q453 404 320 365L320 359Q400 348 435.50 305Q471 262 471 182Q471 90 408 40Q345-10 216-10Z"  horiz-adv-x="545" vert-adv-y="1000"  />

    
    <glyph glyph-name="uni34" unicode="&#x34;" d="M505 230L505 188L419 188L419 0L373 0L373 188L32 188L32 245L355 694L419 694L419 230L505 230M77 230L373 230L373 639L367 639L77 236L77 230Z"  horiz-adv-x="545" vert-adv-y="1000"  />

    
    <glyph glyph-name="uni35" unicode="&#x35;" d="M219-10Q151-10 79 5L79 50Q146 32 219 32Q434 32 434 219Q434 311 384 350.50Q334 390 210 390Q153 390 85 376L131 694L431 694L431 652L168 652L135 423Q175 431 223 431Q356 431 418 382Q480 333 480 221Q480-10 219-10Z"  horiz-adv-x="545" vert-adv-y="1000"  />

    
    <glyph glyph-name="uni36" unicode="&#x36;" d="M274-10Q173-10 116.50 54Q60 118 60 271Q60 470 145.50 587Q231 704 409 704L408 662Q275 662 201 583Q127 504 116 383L119 383Q175 455 289 455Q386 455 435.50 397.50Q485 340 485 229Q485-10 274-10M276 32Q361 32 400 81Q439 130 439 230Q439 414 287 414Q200 414 154 370Q108 326 108 253Q108 32 276 32Z"  horiz-adv-x="545" vert-adv-y="1000"  />

    
    <glyph glyph-name="uni37" unicode="&#x37;" d="M135 0L451 652L43 652L43 694L495 694L495 644L186 0L135 0Z"  horiz-adv-x="545" vert-adv-y="1000"  />

    
    <glyph glyph-name="uni38" unicode="&#x38;" d="M273-9Q48-9 48 183Q48 257 82 300.50Q116 344 167 359L167 363Q73 405 73 520Q73 604 121 653.50Q169 703 273 703Q471 703 471 520Q471 402 378 363L378 359Q496 327 496 182Q496-9 273-9M273 378Q425 378 425 519Q425 661 273 661Q119 661 119 519Q119 378 273 378M273 33Q450 33 450 182Q450 263 408 300.50Q366 338 273 338Q182 338 138.50 300.50Q95 263 95 182Q95 33 273 33Z"  horiz-adv-x="545" vert-adv-y="1000"  />

    
    <glyph glyph-name="uni39" unicode="&#x39;" d="M137-10L138 32Q271 32 344.50 111.50Q418 191 429 312L426 312Q375 246 257 246Q60 246 60 468Q60 704 275 704Q375 704 430 640Q485 576 485 423Q485 224 400 107Q315-10 137-10M259 287Q346 287 391.50 328Q437 369 437 441Q437 662 272 662Q185 662 145.50 614.50Q106 567 106 467Q106 287 259 287Z"  horiz-adv-x="545" vert-adv-y="1000"  />

    
    <glyph glyph-name="uni41" unicode="&#x41;" d="M551 0L464 233L142 233L54 0L4 0L271 694L339 694L603 0L551 0M158 274L449 274L310 649L300 649L158 274Z"  horiz-adv-x="607" vert-adv-y="1000"  />

    
    <glyph glyph-name="uni42" unicode="&#x42;" d="M92 0L92 694L270 694Q392 694 438.50 653Q485 612 485 515Q485 384 378 359L378 355Q448 341 478.50 300.50Q509 260 509 191Q509 93 455.50 46.50Q402 0 271 0L92 0M139 376L245 376Q359 376 398.50 405Q438 434 438 515Q438 599 395.50 625.50Q353 652 238 652L139 652L139 376M139 43L260 43Q377 43 419.50 76.50Q462 110 462 191Q462 268 415.50 301Q369 334 248 334L139 334L139 43Z"  horiz-adv-x="581" vert-adv-y="1000"  />

    
    <glyph glyph-name="uni43" unicode="&#x43;" d="M375-10Q301-10 249 5.50Q197 21 155 59Q113 97 92.50 169Q72 241 72 347Q72 539 153.50 621.50Q235 704 391 704Q474 704 534 686L534 639Q468 661 390 661Q256 661 188.50 588Q121 515 121 347Q121 255 138 193Q155 131 189.50 96.50Q224 62 268.50 47.50Q313 33 376 33Q462 33 542 63L542 21Q470-10 375-10Z"  horiz-adv-x="577" vert-adv-y="1000"  />

    
    <glyph glyph-name="uni44" unicode="&#x44;" d="M92 694L265 694Q345 694 401.50 680Q458 666 505 629.50Q552 593 575.50 522.50Q599 452 599 347Q599 157 512 78.50Q425 0 265 0L92 0L92 694M139 42L269 42Q404 42 476.50 110.50Q549 179 549 347Q549 438 528.50 500Q508 562 468 594.50Q428 627 381 639.50Q334 652 269 652L139 652L139 42Z"  horiz-adv-x="670" vert-adv-y="1000"  />

    
    <glyph glyph-name="uni45" unicode="&#x45;" d="M139 45L484 45L484 0L92 0L92 694L451 694L451 651L139 651L139 386L431 386L431 344L139 344L139 45Z"  horiz-adv-x="532" vert-adv-y="1000"  />

    
    <glyph glyph-name="uni46" unicode="&#x46;" d="M451 651L139 651L139 379L431 379L431 337L139 337L139 0L92 0L92 694L451 694L451 651Z"  horiz-adv-x="499" vert-adv-y="1000"  />

    
    <glyph glyph-name="uni47" unicode="&#x47;" d="M386-10Q308-10 254 5.50Q200 21 157 59Q114 97 93 168.50Q72 240 72 347Q72 540 154 622Q236 704 398 704Q521 704 576 678L576 632Q501 661 400 661Q336 661 289.50 648Q243 635 202.50 602Q162 569 141.50 505Q121 441 121 347Q121 248 140.50 183.50Q160 119 200 87Q240 55 285.50 43.50Q331 32 397 32Q475 32 537 52L537 310L382 310L382 352L584 352L584 18Q498-10 386-10Z"  horiz-adv-x="659" vert-adv-y="1000"  />

    
    <glyph glyph-name="uni48" unicode="&#x48;" d="M531 694L579 694L579 0L531 0L531 355L139 355L139 0L92 0L92 694L139 694L139 397L531 397L531 694Z"  horiz-adv-x="671" vert-adv-y="1000"  />

    
    <glyph glyph-name="uni49" unicode="&#x49;" d="M92 0L92 694L139 694L139 0L92 0Z"  horiz-adv-x="232" vert-adv-y="1000"  />

    
    <glyph glyph-name="uni4a" unicode="&#x4a;" d="M-32-180Q-66-180-106-172L-106-128Q-63-137-30-137Q28-137 53.50-102.50Q79-68 79 3L79 694L126 694L126-11Q126-88 88-134Q50-180-32-180Z"  horiz-adv-x="214" vert-adv-y="1000"  />

    
    <glyph glyph-name="uni4b" unicode="&#x4b;" d="M240 369L544 0L482 0L202 347L139 347L139 0L92 0L92 694L139 694L139 389L202 389L475 694L535 694L240 369Z"  horiz-adv-x="563" vert-adv-y="1000"  />

    
    <glyph glyph-name="uni4c" unicode="&#x4c;" d="M139 45L458 45L458 0L92 0L92 694L139 694L139 45Z"  horiz-adv-x="473" vert-adv-y="1000"  />

    
    <glyph glyph-name="uni4d" unicode="&#x4d;" d="M92 0L92 694L172 694L390 228L396 228L612 694L692 694L692 0L644 0L644 648L638 648L419 178L365 178L145 648L139 648L139 0L92 0Z"  horiz-adv-x="784" vert-adv-y="1000"  />

    
    <glyph glyph-name="uni4e" unicode="&#x4e;" d="M92 0L92 694L167 694L566 81L572 81L572 694L619 694L619 0L563 0L145 646L139 646L139 0L92 0Z"  horiz-adv-x="711" vert-adv-y="1000"  />

    
    <glyph glyph-name="uni4f" unicode="&#x4f;" d="M523 21.50Q523 21.50 492.50 5.75Q462-10 360-10Q258-10 197 21.50Q136 53 104 132Q72 211 72 347Q72 547 140 625.50Q208 704 360 704Q512 704 580 625.50Q648 547 648 347Q648 211 616 132Q584 53 523 21.50M173.50 103.50Q173.50 103.50 199.75 68.25Q226 33 360 33Q494 33 546.50 103.50Q599 174 599 347Q599 520 546.50 590.50Q494 661 360 661Q226 661 173.50 590.50Q121 520 121 347Q121 174 173.50 103.50Z"  horiz-adv-x="721" vert-adv-y="1000"  />

    
    <glyph glyph-name="uni50" unicode="&#x50;" d="M92 0L92 694L255 694Q392 694 444 644.50Q496 595 496 482Q496 365 444 316.50Q392 268 255 268L139 268L139 0L92 0M139 310L248 310Q363 310 405 345.50Q447 381 447 482Q447 576 404 614Q361 652 248 652L139 652L139 310Z"  horiz-adv-x="553" vert-adv-y="1000"  />

    
    <glyph glyph-name="uni51" unicode="&#x51;" d="M648 347Q648 169 594.50 89Q541 9 424-6L546-145L483-145L371-10L360-10Q258-10 197 21.50Q136 53 104 132Q72 211 72 347Q72 547 140 625.50Q208 704 360 704Q512 704 580 625.50Q648 547 648 347M173.50 103.50Q173.50 103.50 199.75 68.25Q226 33 360 33Q494 33 546.50 103.50Q599 174 599 347Q599 520 546.50 590.50Q494 661 360 661Q226 661 173.50 590.50Q121 520 121 347Q121 174 173.50 103.50Z"  horiz-adv-x="721" vert-adv-y="1000"  />

    
    <glyph glyph-name="uni52" unicode="&#x52;" d="M556 0L499 0L289 302Q272 301 234 301L139 301L139 0L92 0L92 694L227 694Q378 694 434 653.50Q490 613 490 502Q490 409 455.50 364.50Q421 320 340 308L556 0M139 343L230 343Q353 343 398 372.50Q443 402 443 502Q443 591 396.50 621.50Q350 652 230 652L139 652L139 343Z"  horiz-adv-x="570" vert-adv-y="1000"  />

    
    <glyph glyph-name="uni53" unicode="&#x53;" d="M253-10Q192-10 132-1Q72 8 48 19L48 67Q131 33 254 33Q348 33 395 68Q442 103 442 181Q442 254 403.50 287.50Q365 321 262 346Q151 374 109.50 409.50Q68 445 68 527Q68 705 285 705Q386 705 455 680L455 634Q383 662 283 662Q198 662 156.50 630.50Q115 599 115 527Q115 467 147 437.50Q179 408 276 387Q393 359 441 317Q489 275 489 181Q489 82 429.50 36Q370-10 253-10Z"  horiz-adv-x="538" vert-adv-y="1000"  />

    
    <glyph glyph-name="uni53F7" unicode="&#x53F7;" d="M780 744L780 507L203 507L203 744L780 744M745 538L745 712L238 712L238 538L745 538M932 358L292 358L263 227L765 227L750 60Q742-19 711-40.50Q680-62 580-68L428-76L419-42L574-34Q658-30 681.50-14Q705 2 712 66Q719 152 725 195L218 195L253 358L51 358L51 392L932 392L932 358Z"  horiz-adv-x="984" vert-adv-y="1000"  />

    
    <glyph glyph-name="uni54" unicode="&#x54;" d="M487 694L487 651L270 651L270 0L223 0L223 651L5 651L5 694L487 694Z"  horiz-adv-x="492" vert-adv-y="1000"  />

    
    <glyph glyph-name="uni55" unicode="&#x55;" d="M329-10Q204-10 146 43.50Q88 97 88 222L88 694L135 694L135 242Q135 122 178.50 77Q222 32 330 32Q442 32 485.50 76.50Q529 121 529 242L529 694L574 694L574 222Q574 97 514.50 43.50Q455-10 329-10Z"  horiz-adv-x="661" vert-adv-y="1000"  />

    
    <glyph glyph-name="uni56" unicode="&#x56;" d="M240 0L8 694L57 694L269 51L275 51L486 694L533 694L300 0L240 0Z"  horiz-adv-x="542" vert-adv-y="1000"  />

    
    <glyph glyph-name="uni57" unicode="&#x57;" d="M195 0L19 694L68 694L226 57L232 57L395 603L460 603L624 57L630 57L787 694L835 694L658 0L596 0L430 548L424 548L257 0L195 0Z"  horiz-adv-x="853" vert-adv-y="1000"  />

    
    <glyph glyph-name="uni58" unicode="&#x58;" d="M18 0L248 353L31 694L86 694L279 384L285 384L479 694L532 694L316 354L543 0L487 0L285 321L279 321L73 0L18 0Z"  horiz-adv-x="562" vert-adv-y="1000"  />

    
    <glyph glyph-name="uni59" unicode="&#x59;" d="M239 0L239 313L-2 694L52 694L262 359L268 359L474 694L528 694L286 313L286 0L239 0Z"  horiz-adv-x="526" vert-adv-y="1000"  />

    
    <glyph glyph-name="uni5907" unicode="&#x5907;" d="M526 486Q678 414 939 374L932 339Q643 386 487 467Q301 382 49 334L41 368Q275 411 450 488Q349 546 271 636Q192 537 99 465L78 493Q165 563 235 648.50Q305 734 342 806L376 794Q352 751 325 709L800 709L800 675Q683 564 526 486M291 662Q375 566 488 505Q641 579 749 677L302 677Q299 672 291 662M181-105L181 312L797 312L797-105L762-105L762-45L216-45L216-105L181-105M472 280L216 280L216 147L472 147L472 280M762 147L762 280L505 280L505 147L762 147M216-13L472-13L472 117L216 117L216-13M505-13L762-13L762 117L505 117L505-13Z"  horiz-adv-x="984" vert-adv-y="1000"  />

    
    <glyph glyph-name="uni5a" unicode="&#x5a;" d="M45 0L45 52L484 645L483 651L72 651L72 694L536 694L536 641L100 51L100 45L555 45L555 0L45 0Z"  horiz-adv-x="590" vert-adv-y="1000"  />

    
    <glyph glyph-name="uni61" unicode="&#x61;" d="M301 550Q413 550 453.50 506Q494 462 494 381L494 0L456 0L449 96Q425 46 368 18Q311-10 237-10Q55-10 55 147Q55 243 111 279Q167 315 267 315L449 315L449 374Q449 443 417 475.50Q385 508 298 508Q236 508 177 495L177 539Q240 550 301 550M236 32Q317 32 373 64.50Q429 97 449 158L449 275L273 275Q182 275 141 249Q100 223 100 147Q100 32 236 32Z"  horiz-adv-x="588" vert-adv-y="1000"  />

    
    <glyph glyph-name="uni62" unicode="&#x62;" d="M333 550Q449 550 496 482Q543 414 543 270Q543 134 495 62Q447-10 333-10Q179-10 139 110L131 0L93 0L93 760L138 760L138 422Q173 550 333 550M326 31Q424 31 460 90Q496 149 496 270Q496 394 459.50 451.50Q423 509 326 509Q222 509 179 446.50Q136 384 136 270Q136 197 152 146.50Q168 96 211.50 63.50Q255 31 326 31Z"  horiz-adv-x="606" vert-adv-y="1000"  />

    
    <glyph glyph-name="uni63" unicode="&#x63;" d="M284-10Q162-10 110 52Q58 114 58 270Q58 426 110 488Q162 550 284 550Q366 550 422 532L422 487Q362 509 284 509Q184 509 145 457Q106 405 106 270Q106 135 145 83Q184 31 284 31Q360 31 424 59L424 15Q359-10 284-10Z"  horiz-adv-x="468" vert-adv-y="1000"  />

    
    <glyph glyph-name="uni64" unicode="&#x64;" d="M468 760L513 760L513 0L475 0L470 121Q435-10 273-10Q157-10 110 58Q63 126 63 270Q63 406 111 478Q159 550 273 550Q426 550 468 426L468 760M280 31Q384 31 427 93.50Q470 156 470 270Q470 343 454 393.50Q438 444 394.50 476.50Q351 509 280 509Q182 509 146 450Q110 391 110 270Q110 146 146.50 88.50Q183 31 280 31Z"  horiz-adv-x="606" vert-adv-y="1000"  />

    
    <glyph glyph-name="uni65" unicode="&#x65;" d="M487 330Q487 292 485 278L104 251Q106 129 147.50 80Q189 31 298 31Q398 31 467 64L467 21Q441 10 391 0Q341-10 295-10Q167-10 112.50 52Q58 114 58 270Q58 427 111 488.50Q164 550 290 550Q342 550 379 536Q416 522 436.50 502Q457 482 469 450.50Q481 419 484 392Q487 365 487 330M104 289L444 315Q444 365 439 396Q434 427 418.50 455Q403 483 371 496Q339 509 288 509Q185 509 145.50 459.50Q106 410 104 289Z"  horiz-adv-x="552" vert-adv-y="1000"  />

    
    <glyph glyph-name="uni66" unicode="&#x66;" d="M257 723Q199 723 174.50 685.50Q150 648 150 552L150 540L293 540L293 499L150 499L150 0L105 0L105 499L11 499L11 540L105 540L105 567Q105 764 258 764Q293 764 325 759L325 718Q293 723 257 723Z"  horiz-adv-x="322" vert-adv-y="1000"  />

    
    <glyph glyph-name="uni67" unicode="&#x67;" d="M468 540L513 540L513 35Q513-78 450.50-139Q388-200 266-200Q188-200 144-189L144-146Q191-159 265-159Q370-159 419-108.50Q468-58 468 47L468 118Q432 0 273 0Q157 0 110 65.50Q63 131 63 275Q63 410 111 480Q159 550 273 550Q426 550 468 425L468 540M282 41Q385 41 427.50 101.50Q470 162 470 275Q470 386 427.50 447.50Q385 509 282 509Q184 509 148 452Q112 395 112 275Q112 152 148 96.50Q184 41 282 41Z"  horiz-adv-x="606" vert-adv-y="1000"  />

    
    <glyph glyph-name="uni68" unicode="&#x68;" d="M321 550Q418 550 457.50 507Q497 464 497 378L497 0L452 0L452 350Q452 438 423.50 473.50Q395 509 316 509Q164 509 139 379L139 0L94 0L94 760L139 760L139 447Q152 500 204 525Q256 550 321 550Z"  horiz-adv-x="586" vert-adv-y="1000"  />

    
    <glyph glyph-name="uni69" unicode="&#x69;" d="M118 660Q99 660 93 666Q87 672 87 693Q87 714 93 720Q99 726 118 726Q136 726 142 720Q148 714 148 693Q148 672 142 666Q136 660 118 660M95 0L95 540L140 540L140 0L95 0Z"  horiz-adv-x="236" vert-adv-y="1000"  />

    
    <glyph glyph-name="uni6a" unicode="&#x6a;" d="M118 660Q99 660 93 666Q87 672 87 693Q87 714 93 720Q99 726 118 726Q136 726 142 720Q148 714 148 693Q148 672 142 666Q136 660 118 660M-4-200Q-33-200-65-194L-65-152Q-26-158-4-158Q53-158 74-126Q95-94 95-3L95 540L140 540L140-14Q140-123 104-161.50Q68-200-4-200Z"  horiz-adv-x="236" vert-adv-y="1000"  />

    
    <glyph glyph-name="uni6b" unicode="&#x6b;" d="M205 288L468 0L408 0L170 265L139 265L139 0L94 0L94 760L139 760L139 306L169 306L395 540L453 540L205 288Z"  horiz-adv-x="464" vert-adv-y="1000"  />

    
    <glyph glyph-name="uni6c" unicode="&#x6c;" d="M187-6Q144-6 119.50 15Q95 36 95 91L95 760L140 760L140 103Q140 62 151.50 47.50Q163 33 193 33Q218 33 241 39L241 0Q218-6 187-6Z"  horiz-adv-x="246" vert-adv-y="1000"  />

    
    <glyph glyph-name="uni6CAA" unicode="&#x6CAA;" d="M860 660L860 326L435 326Q431 179 402.50 92Q374 5 292-103L260-83Q350 31 375.50 124.50Q401 218 401 412L401 660L625 660Q610 721 587 796L623 800Q639 748 661 660L860 660M324 629L304 600Q269 633 214 679.50Q159 726 131 745L150 773Q182 751 239 704Q296 657 324 629M825 361L825 626L436 626L436 417L436 361L825 361M266 400L245 370Q142 466 59 524L78 552Q151 503 266 400M225 271L244 264L257 258Q210 107 121-74L88-62Q158 77 225 271Z"  horiz-adv-x="984" vert-adv-y="1000"  />

    
    <glyph glyph-name="uni6d" unicode="&#x6d;" d="M636 550Q725 550 761.50 506.50Q798 463 798 378L798 0L753 0L753 350Q753 438 728 473.50Q703 509 630 509Q567 509 524.50 481.50Q482 454 468 379L468 378L468 0L423 0L423 350Q423 438 398 473.50Q373 509 301 509Q164 509 139 384L139 0L94 0L94 540L139 540L139 450Q152 503 198 526.50Q244 550 306 550Q437 550 462 445Q475 499 523.50 524.50Q572 550 636 550Z"  horiz-adv-x="887" vert-adv-y="1000"  />

    
    <glyph glyph-name="uni6e" unicode="&#x6e;" d="M321 550Q418 550 457.50 507Q497 464 497 378L497 0L452 0L452 350Q452 438 423.50 473.50Q395 509 316 509Q164 509 139 379L139 0L94 0L94 540L139 540L139 447Q152 500 204 525Q256 550 321 550Z"  horiz-adv-x="586" vert-adv-y="1000"  />

    
    <glyph glyph-name="uni6f" unicode="&#x6f;" d="M471.50 52Q471.50 52 444.75 21Q418-10 293-10Q168-10 115.50 52Q63 114 63 270Q63 426 115.50 488Q168 550 293 550Q418 550 471.50 488Q525 426 525 270Q525 114 471.50 52M293 31Q399 31 438.50 83Q478 135 478 270Q478 404 438 456.50Q398 509 293 509Q188 509 149 457Q110 405 110 270Q110 135 149 83Q188 31 293 31Z"  horiz-adv-x="588" vert-adv-y="1000"  />

    
    <glyph glyph-name="uni70" unicode="&#x70;" d="M333 550Q449 550 496 482Q543 414 543 270Q543 134 495 62Q447-10 333-10Q180-10 138 114L138-200L93-200L93 540L138 540L138 422Q173 550 333 550M326 31Q424 31 460 90Q496 149 496 270Q496 394 459.50 451.50Q423 509 326 509Q222 509 179 446.50Q136 384 136 270Q136 197 152 146.50Q168 96 211.50 63.50Q255 31 326 31Z"  horiz-adv-x="606" vert-adv-y="1000"  />

    
    <glyph glyph-name="uni71" unicode="&#x71;" d="M468 540L513 540L513-200L468-200L468 118Q431-10 273-10Q157-10 110 58Q63 126 63 270Q63 406 111 478Q159 550 273 550Q426 550 468 426L468 540M280 31Q384 31 427 93.50Q470 156 470 270Q470 343 454 393.50Q438 444 394.50 476.50Q351 509 280 509Q182 509 146 450Q110 391 110 270Q110 146 146.50 88.50Q183 31 280 31Z"  horiz-adv-x="606" vert-adv-y="1000"  />

    
    <glyph glyph-name="uni72" unicode="&#x72;" d="M312 550L323 550L321 509L309 509Q177 509 138 384L138 0L93 0L93 540L138 540L138 443Q174 550 312 550Z"  horiz-adv-x="338" vert-adv-y="1000"  />

    
    <glyph glyph-name="uni73" unicode="&#x73;" d="M212-6Q120-6 57 10L57 53Q122 35 212 35Q285 35 319.50 60.50Q354 86 354 142Q354 191 327.50 215Q301 239 224 259Q136 280 102 309Q68 338 68 405Q68 477 114.50 513.50Q161 550 242 550Q328 550 382 532L379 488Q321 509 242 509Q113 509 113 405Q113 354 139 334.50Q165 315 231 299Q324 275 361.50 243Q399 211 399 142Q399-6 212-6Z"  horiz-adv-x="452" vert-adv-y="1000"  />

    
    <glyph glyph-name="uni74" unicode="&#x74;" d="M227 35Q266 35 298 42L298 1Q261-6 228-6Q150-6 121.50 26Q93 58 93 161L93 499L6 499L6 540L93 540L93 668L138 668L138 540L287 540L287 499L138 499L138 159Q138 86 156.50 60.50Q175 35 227 35Z"  horiz-adv-x="303" vert-adv-y="1000"  />

    
    <glyph glyph-name="uni75" unicode="&#x75;" d="M442 540L487 540L487 0L449 0L442 95Q429 41 378 15.50Q327-10 262-10Q165-10 126.50 33Q88 76 88 162L88 540L133 540L133 190Q133 103 160.50 67.50Q188 32 267 32Q417 32 442 161L442 540Z"  horiz-adv-x="581" vert-adv-y="1000"  />

    
    <glyph glyph-name="uni76" unicode="&#x76;" d="M209 0L3 540L50 540L233 49L239 49L419 540L466 540L262 0L209 0Z"  horiz-adv-x="469" vert-adv-y="1000"  />

    
    <glyph glyph-name="uni77" unicode="&#x77;" d="M164 0L15 540L60 540L193 50L199 50L358 540L416 540L578 50L584 50L718 540L761 540L609 0L554 0L390 493L384 493L220 0L164 0Z"  horiz-adv-x="776" vert-adv-y="1000"  />

    
    <glyph glyph-name="uni78" unicode="&#x78;" d="M15 0L196 271L17 540L68 540L224 300L230 300L385 540L435 540L258 273L441 0L391 0L231 244L225 244L65 0L15 0Z"  horiz-adv-x="455" vert-adv-y="1000"  />

    
    <glyph glyph-name="uni79" unicode="&#x79;" d="M49-200L49-160Q115-160 151-125.50Q187-91 219 3L3 540L51 540L240 59L246 59L420 540L467 540L266-3Q247-55 231-85.50Q215-116 190.50-145Q166-174 131.50-187Q97-200 49-200Z"  horiz-adv-x="470" vert-adv-y="1000"  />

    
    <glyph glyph-name="uni7a" unicode="&#x7a;" d="M32 0L32 37L357 494L358 500L57 500L57 540L413 540L413 501L90 47L90 41L433 41L433 0L32 0Z"  horiz-adv-x="456" vert-adv-y="1000"  />

    
    <glyph glyph-name="uni7c" unicode="&#x7c;" d="M50-200L50 760L95 760L95-200L50-200Z"  horiz-adv-x="145" vert-adv-y="1000"  />

    

  </font>
</defs>
</svg>
